#!OML:ASF F:\VICON\USERDATA\INSTALL\rory3\rory3.ASF
:FULLY-SPECIFIED
:DEGREES
105
root -1.21419 16.9464 28.3483 -174.151 -2.05971 -187.389
lowerback 26.188 -0.822438 -4.08075
upperback 2.85592 -2.57212 6.59646
thorax -10.9096 -1.28978 10.9862
lowerneck -9.90205 -0.72508 -1.98168
upperneck 10.1823 0.735505 -8.39896
head 4.72415 -0.0707596 -2.21421
rclavicle 5.00937e-014 2.22639e-014
rhumerus -10.9966 -35.1691 -62.482
rradius 30.5712
rwrist 5.83082
rhand -12.473 -0.842965
rfingers 7.12502
rthumb 13.6012 -30.3787
lclavicle 5.00937e-014 2.22639e-014
lhumerus -27.9896 -8.40018 90.6873
lradius 53.9351
lwrist 10.79
lhand -11.4005 51.1456
lfingers 7.12502
lthumb 14.6346 80.6092
rfemur -50.7598 -5.2576 16.3305
rtibia 47.7002
rfoot -2.56277 -15.2963
rtoes 24.3928
lfemur 8.0736 -5.93303 -31.4362
ltibia 38.7723
lfoot 11.6671 -8.62169
ltoes -18.1322
106
root -1.1942 16.9782 28.1059 -174.255 -1.94495 -187.078
lowerback 26.3745 -0.714821 -3.77299
upperback 3.07957 -2.40643 6.84187
thorax -10.7868 -1.26789 11.0443
lowerneck -10.2099 -0.76086 -2.08586
upperneck 10.06 0.721622 -8.48489
head 4.73901 -0.0883743 -2.22573
rclavicle -1.19271e-014 -9.85972e-014
rhumerus -10.8333 -38.8057 -62.1393
rradius 28.1886
rwrist 3.4358
rhand -13.6076 -0.401119
rfingers 7.12502
rthumb 12.5075 -30.0068
lclavicle -1.19271e-014 -9.85972e-014
lhumerus -28.0335 -9.07993 91.1264
lradius 53.4653
lwrist 11.0647
lhand -11.3871 51.0974
lfingers 7.12502
lthumb 14.6475 80.5601
rfemur -50.2326 -4.89252 16.665
rtibia 48.6452
rfoot -3.53251 -15.2961
rtoes 24.3792
lfemur 6.30964 -6.10295 -31.0343
ltibia 41.8263
lfoot 15.0131 -8.54436
ltoes -12.7034
107
root -1.17643 17.0101 27.8732 -174.328 -1.78034 -186.871
lowerback 26.7892 -0.626433 -3.5648
upperback 2.90808 -2.24701 7.36714
thorax -10.8333 -1.27378 10.8207
lowerneck -10.0813 -0.7743 -2.09654
upperneck 9.85227 0.72688 -8.73818
head 4.6555 -0.0844061 -2.2993
rclavicle -5.56597e-014 -1.59028e-015
rhumerus -11.1966 -41.1664 -61.6748
rradius 26.9205
rwrist 0.234071
rhand -14.9845 -1.96467
rfingers 7.12502
rthumb 11.1797 -31.6468
lclavicle -5.56597e-014 -1.59028e-015
lhumerus -28.4798 -9.56762 91.576
lradius 53.0232
lwrist 10.9534
lhand -11.1698 50.9921
lfingers 7.12502
lthumb 14.8569 80.4395
rfemur -49.7976 -4.72015 16.9951
rtibia 49.5295
rfoot -4.33847 -15.3362
rtoes 24.016
lfemur 4.36673 -6.14823 -30.7576
ltibia 44.9197
lfoot 18.1972 -8.73133
ltoes -7.94432
108
root -1.16119 17.0275 27.6395 -174.448 -1.65198 -186.641
lowerback 26.8805 -0.547153 -3.11876
upperback 3.17783 -2.08909 7.45079
thorax -10.6182 -1.26769 10.595
lowerneck -10.179 -0.790166 -1.92946
upperneck 9.58925 0.694759 -8.98122
head 4.59115 -0.0995162 -2.40252
rclavicle -7.31528e-014 3.18055e-015
rhumerus -11.4883 -44.3051 -61.3065
rradius 25.6807
rwrist -1.83239
rhand -16.0335 -2.07817
rfingers 7.12502
rthumb 10.1678 -31.8125
lclavicle -7.31528e-014 3.18055e-015
lhumerus -28.7667 -10.1184 91.8438
lradius 52.8495
lwrist 10.5712
lhand -10.8614 51.2057
lfingers 7.12502
lthumb 15.154 80.6308
rfemur -49.2693 -4.73134 17.3803
rtibia 50.3496
rfoot -5.26961 -15.1353
rtoes 23.3374
lfemur 2.43813 -5.97465 -30.4228
ltibia 48.0548
lfoot 20.6672 -9.3438
ltoes -6.27444
109
root -1.14614 17.0422 27.404 -174.763 -1.48792 -186.485
lowerback 27.2294 -0.367149 -2.79197
upperback 3.49183 -1.85432 7.56382
thorax -10.4842 -1.22537 10.456
lowerneck -10.6997 -0.794291 -1.84875
upperneck 9.662 0.736507 -9.15967
head 4.70433 -0.10024 -2.47245
rclavicle -1.27222e-014 1.90833e-014
rhumerus -12.0312 -47.641 -60.6612
rradius 24.8081
rwrist -3.53994
rhand -17.1896 -2.51098
rfingers 7.12502
rthumb 9.05234 -32.2967
lclavicle -1.27222e-014 1.90833e-014
lhumerus -28.9286 -10.7385 92.1421
lradius 52.6646
lwrist 10.3642
lhand -10.5738 50.7781
lfingers 7.12502
lthumb 15.431 80.1821
rfemur -48.5285 -4.76239 17.6623
rtibia 51.127
rfoot -6.22998 -14.8712
rtoes 22.4993
lfemur 0.774864 -5.68703 -30.1803
ltibia 51.1355
lfoot 21.7416 -9.62601
ltoes -4.81493
110
root -1.12972 17.0569 27.1762 -175.089 -1.23373 -186.297
lowerback 27.8103 -0.161668 -2.5375
upperback 3.7064 -1.59367 7.72672
thorax -10.5678 -1.15347 10.4228
lowerneck -11.3938 -0.795989 -1.8058
upperneck 9.94396 0.829639 -9.38915
head 4.91458 -0.0903061 -2.55181
rclavicle -1.43125e-014 -5.24792e-014
rhumerus -12.9086 -50.7757 -59.7022
rradius 24.175
rwrist -5.14332
rhand -18.4136 -3.21348
rfingers 7.12502
rthumb 7.87118 -33.0469
lclavicle -1.43125e-014 -5.24792e-014
lhumerus -29.0608 -11.1995 92.4331
lradius 52.2306
lwrist 9.99151
lhand -10.3023 49.5094
lfingers 7.12502
lthumb 15.6925 78.8931
rfemur -47.7459 -4.5007 17.8922
rtibia 51.8689
rfoot -7.1851 -14.8535
rtoes 21.3562
lfemur -0.862851 -5.37379 -29.9335
ltibia 54.1796
lfoot 21.2302 -9.68661
ltoes -4.10243
111
root -1.11648 17.0738 26.953 -175.354 -0.84769 -185.982
lowerback 28.3682 0.0349688 -2.17751
upperback 3.87493 -1.30396 7.89304
thorax -10.6934 -1.06789 10.3227
lowerneck -11.7345 -0.772266 -1.88466
upperneck 9.97377 0.9088 -9.45184
head 4.98563 -0.0662506 -2.55528
rclavicle 1.43125e-014 -5.24792e-014
rhumerus -14.1642 -52.5081 -58.6169
rradius 24.1115
rwrist -7.73973
rhand -19.6722 -3.66932
rfingers 7.12502
rthumb 6.65623 -33.5447
lclavicle 1.43125e-014 -5.24792e-014
lhumerus -29.3367 -11.4383 92.6572
lradius 51.7738
lwrist 9.2431
lhand -9.72337 48.5776
lfingers 7.12502
lthumb 16.25 77.9166
rfemur -46.9735 -4.13782 18.2472
rtibia 52.5301
rfoot -8.1656 -14.8239
rtoes 21.1163
lfemur -2.61095 -4.92692 -29.5816
ltibia 57.1557
lfoot 19.3983 -9.46613
ltoes -4.37068
